<?xml version="1.0" standalone="no"?>
<!DOCTYPE svg PUBLIC "-//W3C//DTD SVG 1.1//EN" "http://www.w3.org/Graphics/SVG/1.1/DTD/svg11.dtd">
<svg width="100%" height="100%" viewBox="0 0 98 98" version="1.1" xmlns="http://www.w3.org/2000/svg" xmlns:xlink="http://www.w3.org/1999/xlink" xml:space="preserve" style="fill-rule:evenodd;clip-rule:evenodd;stroke-linejoin:round;stroke-miterlimit:1.41421;">
    <g id="Layer1">
        <g transform="matrix(3,0,0,3,-243.844,-1539.13)">
            <clipPath id="_clip1">
                <path d="M97.575,540.512C96.48,540.512 95.457,540.537 94.497,540.58C94.775,541.398 95.368,542.067 96.132,542.447C96.568,542.663 97.056,542.787 97.575,542.787C98.094,542.787 98.583,542.663 99.018,542.447C99.783,542.067 100.376,541.397 100.653,540.58C99.694,540.537 98.67,540.512 97.575,540.512Z"/>
            </clipPath>
            <g clip-path="url(#_clip1)">
                <rect x="89.497" y="535.512" width="16.156" height="12.275" style="fill:black;fill-rule:nonzero;"/>
            </g>
        </g>
        <g transform="matrix(3,0,0,3,-243.67,-1539.35)">
            <clipPath id="_clip2">
                <path d="M113.333,540.26C106.595,531.467 111.669,517.953 100.498,516.042C100.447,514.473 99.157,513.212 97.575,513.212C95.993,513.212 94.704,514.473 94.653,516.042C83.481,517.953 88.555,531.467 81.817,540.26L81.818,540.26C81.494,540.623 81.313,541.031 81.313,541.487C81.313,545.594 95.911,545.712 97.575,545.712C99.24,545.712 113.838,545.594 113.838,541.487C113.838,541.031 113.656,540.623 113.333,540.26ZM97.575,514.512C98.383,514.512 99.05,515.105 99.175,515.877C98.67,515.836 98.14,515.812 97.575,515.812C97.011,515.812 96.481,515.836 95.975,515.877C96.101,515.105 96.768,514.512 97.575,514.512ZM97.575,543.762C89.15,543.762 84.043,542.348 83.309,541.487C84.043,540.627 89.151,539.212 97.575,539.212C106,539.212 111.107,540.627 111.842,541.487C111.107,542.348 106,543.762 97.575,543.762Z"/>
            </clipPath>
            <g clip-path="url(#_clip2)">
                <rect x="76.313" y="508.212" width="42.525" height="42.5" style="fill:black;fill-rule:nonzero;"/>
            </g>
        </g>
    </g>
</svg>
