<?xml version="1.0" standalone="no"?>
<!DOCTYPE svg PUBLIC "-//W3C//DTD SVG 1.1//EN" "http://www.w3.org/Graphics/SVG/1.1/DTD/svg11.dtd">
<svg width="100%" height="100%" viewBox="0 0 1400 220" version="1.1" xmlns="http://www.w3.org/2000/svg" xmlns:xlink="http://www.w3.org/1999/xlink" xml:space="preserve" style="fill-rule:evenodd;clip-rule:evenodd;stroke-linejoin:round;stroke-miterlimit:1.41421;">
    <g id="Layer1" transform="matrix(1,0,0,1,0,-10)">
        <g transform="matrix(2.88645,0,0,2.88645,-687.867,-83.0255)">
            <g transform="matrix(3,0,0,3,0,0)">
                <clipPath id="_clip1">
                    <path d="M103.7,23.311C105.505,23.311 106.539,22.333 106.539,20.889L106.539,20.841C106.539,19.227 105.433,18.395 103.628,18.395L99.946,18.395L99.946,23.311L103.7,23.311ZM96.242,14.995L103.941,14.995C106.082,14.995 107.742,15.607 108.849,16.732C109.788,17.686 110.293,19.03 110.293,20.647L110.293,20.694C110.293,23.458 108.825,25.193 106.684,26.002L110.798,32.116L106.467,32.116L102.859,26.639L99.946,26.639L99.946,32.116L96.242,32.116L96.242,14.995Z"/>
                </clipPath>
                <g clip-path="url(#_clip1)">
                    <rect x="91.242" y="9.995" width="24.556" height="27.121" style="fill:black;fill-rule:nonzero;"/>
                </g>
            </g>
            <g transform="matrix(3,0,0,3,0,0)">
                <clipPath id="_clip2">
                    <path d="M126.924,23.606L126.924,23.555C126.924,20.622 124.806,18.175 121.824,18.175C118.84,18.175 116.77,20.571 116.77,23.507L116.77,23.555C116.77,26.491 118.888,28.938 121.872,28.938C124.854,28.938 126.924,26.54 126.924,23.606ZM112.898,23.606L112.898,23.555C112.898,18.688 116.675,14.702 121.872,14.702C127.068,14.702 130.797,18.64 130.797,23.507L130.797,23.555C130.797,28.422 127.02,32.41 121.824,32.41C116.626,32.41 112.898,28.473 112.898,23.606Z"/>
                </clipPath>
                <g clip-path="url(#_clip2)">
                    <rect x="107.898" y="9.702" width="27.899" height="27.708" style="fill:black;fill-rule:nonzero;"/>
                </g>
            </g>
            <g transform="matrix(3,0,0,3,0,0)">
                <clipPath id="_clip3">
                    <path d="M142.69,24.95L140.452,19.397L138.214,24.95L142.69,24.95ZM138.792,14.874L142.209,14.874L149.427,32.115L145.553,32.115L144.012,28.277L136.891,28.277L135.352,32.115L131.575,32.115L138.792,14.874Z"/>
                </clipPath>
                <g clip-path="url(#_clip3)">
                    <rect x="126.575" y="9.874" width="27.852" height="27.241" style="fill:black;fill-rule:nonzero;"/>
                </g>
            </g>
            <g transform="matrix(3,0,0,3,0,0)">
                <clipPath id="_clip4">
                    <path d="M155.736,18.395L155.736,28.715L158.599,28.715C161.631,28.715 163.675,26.638 163.675,23.606L163.675,23.555C163.675,20.524 161.631,18.395 158.599,18.395L155.736,18.395ZM152.032,14.996L158.599,14.996C163.893,14.996 167.549,18.688 167.549,23.506L167.549,23.555C167.549,28.373 163.893,32.115 158.599,32.115L152.032,32.115L152.032,14.996Z"/>
                </clipPath>
                <g clip-path="url(#_clip4)">
                    <rect x="147.032" y="9.996" width="25.517" height="27.119" style="fill:black;fill-rule:nonzero;"/>
                </g>
            </g>
            <g transform="matrix(3,0,0,3,0,0)">
                <clipPath id="_clip5">
                    <path d="M173.811,18.469L168.687,18.469L168.687,14.995L182.642,14.995L182.642,18.469L177.517,18.469L177.517,32.116L173.811,32.116L173.811,18.469Z"/>
                </clipPath>
                <g clip-path="url(#_clip5)">
                    <rect x="163.687" y="9.995" width="23.955" height="27.121" style="fill:black;fill-rule:nonzero;"/>
                </g>
            </g>
            <g transform="matrix(3,0,0,3,0,0)">
                <clipPath id="_clip6">
                    <path d="M192.945,23.311C194.749,23.311 195.783,22.333 195.783,20.889L195.783,20.841C195.783,19.227 194.676,18.395 192.872,18.395L189.192,18.395L189.192,23.311L192.945,23.311ZM185.487,14.995L193.186,14.995C195.327,14.995 196.987,15.607 198.093,16.732C199.032,17.686 199.537,19.03 199.537,20.647L199.537,20.694C199.537,23.458 198.07,25.193 195.929,26.002L200.042,32.116L195.712,32.116L192.103,26.639L189.192,26.639L189.192,32.116L185.487,32.116L185.487,14.995Z"/>
                </clipPath>
                <g clip-path="url(#_clip6)">
                    <rect x="180.487" y="9.995" width="24.555" height="27.121" style="fill:black;fill-rule:nonzero;"/>
                </g>
            </g>
            <g transform="matrix(3,0,0,3,0,0)">
                <clipPath id="_clip7">
                    <rect x="203.055" y="14.995" width="3.705" height="17.121"/>
                </clipPath>
                <g clip-path="url(#_clip7)">
                    <rect x="198.055" y="9.995" width="13.705" height="27.121" style="fill:black;fill-rule:nonzero;"/>
                </g>
            </g>
            <g transform="matrix(3,0,0,3,0,0)">
                <clipPath id="_clip8">
                    <path d="M217.614,23.63C219.467,23.63 220.55,22.505 220.55,21.036L220.55,20.988C220.55,19.301 219.394,18.396 217.542,18.396L214.679,18.396L214.679,23.63L217.614,23.63ZM210.973,14.995L217.855,14.995C221.872,14.995 224.302,17.417 224.302,20.914L224.302,20.965C224.302,24.926 221.271,26.98 217.493,26.98L214.679,26.98L214.679,32.115L210.973,32.115L210.973,14.995Z"/>
                </clipPath>
                <g clip-path="url(#_clip8)">
                    <rect x="205.973" y="9.995" width="23.329" height="27.12" style="fill:black;fill-rule:nonzero;"/>
                </g>
            </g>
            <g transform="matrix(3,0,0,3,0,0)">
                <clipPath id="_clip9">
                    <path d="M226.185,29.253L235.448,18.298L226.473,18.298L226.473,14.995L240.211,14.995L240.211,17.857L230.948,28.815L240.211,28.815L240.211,32.116L226.185,32.116L226.185,29.253Z"/>
                </clipPath>
                <g clip-path="url(#_clip9)">
                    <rect x="221.185" y="9.995" width="24.026" height="27.121" style="fill:black;fill-rule:nonzero;"/>
                </g>
            </g>
        </g>
        <g transform="matrix(8.65935,0,0,8.65935,-687.867,-83.0255)">
            <clipPath id="_clip10">
                <path d="M86.363,21.053C86.045,21.378 85.663,21.538 85.218,21.538C84.774,21.538 84.393,21.378 84.072,21.053C83.755,20.73 83.594,20.339 83.594,19.889C83.594,19.438 83.755,19.056 84.072,18.742C84.393,18.429 84.774,18.273 85.218,18.273C85.663,18.273 86.045,18.429 86.363,18.742C86.683,19.056 86.842,19.438 86.842,19.889C86.842,20.339 86.683,20.73 86.363,21.053ZM88.962,16.205C87.936,15.176 86.694,14.658 85.236,14.658C83.778,14.658 82.535,15.176 81.509,16.205C80.483,17.237 79.97,18.482 79.97,19.941C79.97,20.821 80.41,22.293 81.287,24.354C82.163,26.416 83.042,28.293 83.92,29.984C84.796,31.676 85.236,32.497 85.236,32.452C85.372,32.198 85.56,31.85 85.8,31.408C86.038,30.969 86.461,30.142 87.064,28.925C87.669,27.707 88.198,26.592 88.655,25.571C89.111,24.552 89.532,23.497 89.919,22.408C90.307,21.319 90.501,20.498 90.501,19.941C90.501,18.482 89.988,17.237 88.962,16.205Z"/>
            </clipPath>
            <g clip-path="url(#_clip10)">
                <rect x="74.97" y="9.658" width="20.531" height="27.796" style="fill:rgb(241,188,43);fill-rule:nonzero;"/>
            </g>
        </g>
    </g>
</svg>
