<?xml version="1.0" standalone="no"?>
<!DOCTYPE svg PUBLIC "-//W3C//DTD SVG 1.1//EN" "http://www.w3.org/Graphics/SVG/1.1/DTD/svg11.dtd">
<svg width="100%" height="100%" viewBox="0 0 85 90" version="1.1" xmlns="http://www.w3.org/2000/svg" xmlns:xlink="http://www.w3.org/1999/xlink" xml:space="preserve" style="fill-rule:evenodd;clip-rule:evenodd;stroke-linejoin:round;stroke-miterlimit:1.41421;">
    <g transform="matrix(3,0,0,3,-828.874,-47.9294)">
        <g id="Layer1">
            <clipPath id="_clip1">
                <path d="M304.5,43.382L302.995,41.878C301.415,40.298 300.545,38.197 300.545,35.961L300.545,29.313C300.545,24.899 297.706,21.138 293.759,19.753L293.759,16L287.072,16L287.072,19.753C283.125,21.137 280.287,24.899 280.287,29.313L280.287,35.962C280.287,38.196 279.417,40.298 277.836,41.878L276.333,43.382L289.535,43.382L289.535,46L291.296,46L291.296,43.382L304.5,43.382ZM288.834,17.762L291.998,17.762L291.998,19.307C291.482,19.226 290.954,19.183 290.416,19.183C289.878,19.183 289.349,19.226 288.834,19.307L288.834,17.762ZM282.048,35.961L282.048,29.313C282.048,24.698 285.802,20.945 290.416,20.945C295.03,20.945 298.784,24.698 298.784,29.313L298.784,35.961C298.784,38.008 299.387,39.962 300.508,41.62L280.325,41.62C281.446,39.962 282.049,38.008 282.048,35.961Z"/>
            </clipPath>
            <g clip-path="url(#_clip1)">
                <rect x="271.333" y="11" width="38.167" height="40" style="fill:black;fill-rule:nonzero;"/>
            </g>
        </g>
    </g>
</svg>
