<?xml version="1.0" standalone="no"?>
<!DOCTYPE svg PUBLIC "-//W3C//DTD SVG 1.1//EN" "http://www.w3.org/Graphics/SVG/1.1/DTD/svg11.dtd">
<svg width="100%" height="100%" viewBox="0 0 100 24" version="1.1" xmlns="http://www.w3.org/2000/svg" xmlns:xlink="http://www.w3.org/1999/xlink" xml:space="preserve" style="fill-rule:evenodd;clip-rule:evenodd;stroke-linejoin:round;stroke-miterlimit:1.41421;">
    <g transform="matrix(1,0,0,1,1,3)">
        <g id="Layer1">
            <g>
                <g transform="matrix(3,0,0,3,-40,-61.4998)">
                    <clipPath id="_clip1">
                        <path d="M17,27.5C19.209,27.5 21,25.71 21,23.5C21,21.291 19.209,19.5 17,19.5C14.79,19.5 13,21.291 13,23.5C13,25.71 14.79,27.5 17,27.5Z"/>
                    </clipPath>
                    <g clip-path="url(#_clip1)">
                        <rect x="8" y="14.5" width="18" height="18" style="fill:rgb(245,165,39);fill-rule:nonzero;"/>
                    </g>
                </g>
                <g transform="matrix(3,0,0,3,-40,-61.4998)">
                    <clipPath id="_clip2">
                        <path d="M29,27.5C31.209,27.5 33,25.71 33,23.5C33,21.291 31.209,19.5 29,19.5C26.79,19.5 25,21.291 25,23.5C25,25.71 26.79,27.5 29,27.5Z"/>
                    </clipPath>
                    <g clip-path="url(#_clip2)">
                        <rect x="20" y="14.5" width="18" height="18" style="fill:rgb(245,165,39);fill-rule:nonzero;"/>
                    </g>
                </g>
                <g transform="matrix(3,0,0,3,-40,-61.4998)">
                    <clipPath id="_clip3">
                        <path d="M41,27.5C43.209,27.5 45,25.71 45,23.5C45,21.291 43.209,19.5 41,19.5C38.79,19.5 37,21.291 37,23.5C37,25.71 38.79,27.5 41,27.5Z"/>
                    </clipPath>
                    <g clip-path="url(#_clip3)">
                        <rect x="32" y="14.5" width="18" height="18" style="fill:rgb(245,165,39);fill-rule:nonzero;"/>
                    </g>
                </g>
            </g>
        </g>
    </g>
</svg>
