<?xml version="1.0" standalone="no"?>
<!DOCTYPE svg PUBLIC "-//W3C//DTD SVG 1.1//EN" "http://www.w3.org/Graphics/SVG/1.1/DTD/svg11.dtd">
<svg width="100%" height="100%" viewBox="0 0 90 90" version="1.1" xmlns="http://www.w3.org/2000/svg" xmlns:xlink="http://www.w3.org/1999/xlink" xml:space="preserve" style="fill-rule:evenodd;clip-rule:evenodd;stroke-linejoin:round;stroke-miterlimit:1.41421;">
    <g id="Layer1">
        <g transform="matrix(3,0,0,3,-825.5,-412.682)">
            <clipPath id="_clip1">
                <path d="M290.136,139.684L293.096,137.614L295.04,140.66L298.568,139.881L299.198,143.438L302.755,144.068L301.976,147.596L305.022,149.54L302.952,152.5L305.022,155.461L301.976,157.405L302.755,160.933L299.198,161.563L298.568,165.12L295.04,164.341L293.096,167.386L290.136,165.317L287.175,167.386L285.231,164.341L281.703,165.12L281.073,161.563L277.516,160.933L278.295,157.405L275.25,155.461L277.319,152.5L275.25,149.54L278.295,147.596L277.516,144.068L281.073,143.438L281.703,139.881L285.231,140.66L287.175,137.614L290.136,139.684Z"/>
            </clipPath>
            <g clip-path="url(#_clip1)">
                <rect x="270.25" y="132.614" width="39.772" height="39.772" style="fill:black;fill-rule:nonzero;"/>
            </g>
        </g>
        <g transform="matrix(3,0,0,3,-825.5,-412.682)">
            <clipPath id="_clip2">
                <path d="M283.978,155.202C283.144,154.477 283.054,153.214 283.782,152.377L284.053,152.064C284.779,151.229 286.05,151.145 286.878,151.866L289.607,154.237C290.441,154.962 290.53,156.226 289.803,157.062L289.531,157.375C288.805,158.21 287.535,158.294 286.706,157.574L283.978,155.202Z"/>
            </clipPath>
            <g clip-path="url(#_clip2)">
                <rect x="278.289" y="146.377" width="17.006" height="16.685" style="fill:rgb(254,177,35);fill-rule:nonzero;"/>
            </g>
        </g>
        <g transform="matrix(3,0,0,3,-825.5,-412.682)">
            <clipPath id="_clip3">
                <path d="M292.558,147.011C293.207,146.118 294.457,145.919 295.354,146.571L295.688,146.814C296.584,147.465 296.788,148.71 296.134,149.609L290.343,157.581C289.694,158.474 288.444,158.672 287.547,158.02L287.212,157.777C286.317,157.127 286.113,155.881 286.766,154.982L292.558,147.011Z"/>
            </clipPath>
            <g clip-path="url(#_clip3)">
                <rect x="281.383" y="141.187" width="20.134" height="22.217" style="fill:rgb(254,177,35);fill-rule:nonzero;"/>
            </g>
        </g>
    </g>
</svg>
