<?xml version="1.0" standalone="no"?>
<!DOCTYPE svg PUBLIC "-//W3C//DTD SVG 1.1//EN" "http://www.w3.org/Graphics/SVG/1.1/DTD/svg11.dtd">
<svg width="100%" height="100%" viewBox="0 0 98 98" version="1.1" xmlns="http://www.w3.org/2000/svg" xmlns:xlink="http://www.w3.org/1999/xlink" xml:space="preserve" style="fill-rule:evenodd;clip-rule:evenodd;stroke-linejoin:round;stroke-miterlimit:1.41421;">
    <g transform="matrix(3,0,0,3,-629.15,-1539.39)">
        <g id="Layer1">
            <clipPath id="_clip1">
                <path d="M226.05,513.212C217.069,513.212 209.787,520.488 209.787,529.462C209.787,538.437 217.069,545.712 226.05,545.712C235.031,545.712 242.313,538.437 242.313,529.462C242.313,520.488 235.031,513.212 226.05,513.212ZM235.552,541.001C235.229,540.856 234.847,540.681 234.632,540.606C233.684,540.27 232.706,540.012 231.72,539.821C230.365,539.557 229.889,538.919 229.813,537.501C229.803,537.296 229.531,535.577 229.748,535.47C230.646,535.021 230.793,533.594 230.875,532.722C230.937,532.079 231.272,531.787 231.569,531.261C231.893,530.686 232.049,530.035 232.224,529.404C232.354,528.943 232.583,528.175 232.496,527.698C232.415,527.258 232.082,526.85 232.082,526.38C232.082,525.776 232.316,525.136 232.382,524.531C232.484,523.598 232.467,522.653 232.281,521.731C231.786,519.252 229.368,518.349 227.115,517.867C224.994,517.413 222.512,518.509 221.077,519.999C220.489,520.611 219.766,521.38 219.653,522.259C219.549,523.067 219.559,524.03 219.68,524.831C219.744,525.253 219.781,525.679 219.836,526.101C219.88,526.438 220.125,526.757 220.034,527.098C219.981,527.298 219.862,527.474 219.77,527.659C219.334,528.531 219.795,529.723 220.185,530.528C220.369,530.907 220.584,531.281 220.851,531.608C221.173,532 221.185,532.277 221.204,532.779C221.237,533.668 221.494,535.163 222.391,535.61C222.608,535.719 222.297,537.296 222.286,537.501C222.21,538.919 222.386,539.557 221.03,539.821C220.044,540.012 219.066,540.27 218.118,540.606C217.755,540.734 217.185,540.955 216.734,541.149C213.297,538.407 211.088,534.189 211.088,529.462C211.088,521.219 217.801,514.512 226.05,514.512C234.299,514.512 241.012,521.219 241.012,529.462C241.012,534.104 238.884,538.257 235.552,541.001Z"/>
            </clipPath>
            <g clip-path="url(#_clip1)">
                <rect x="204.787" y="508.212" width="42.526" height="42.5" style="fill:black;fill-rule:nonzero;"/>
            </g>
        </g>
    </g>
</svg>
